<mxfile host="Electron" agent="Mozilla/5.0 (Windows NT 10.0; Win64; x64) AppleWebKit/537.36 (KHTML, like Gecko) draw.io/24.7.8 Chrome/128.0.6613.36 Electron/32.0.1 Safari/537.36" version="24.7.8">
  <diagram name="Page-1" id="BzFaBZ48Q60J35nGKCap">
    <mxGraphModel dx="1594" dy="2032" grid="1" gridSize="10" guides="1" tooltips="1" connect="1" arrows="1" fold="1" page="1" pageScale="1" pageWidth="850" pageHeight="1100" math="0" shadow="0">
      <root>
        <mxCell id="0" />
        <mxCell id="1" parent="0" />
        <mxCell id="d1d7cLSGbMRrJKeK6gm--1" value="" style="swimlane;startSize=0;" vertex="1" parent="1">
          <mxGeometry x="170" y="-30" width="530" height="570" as="geometry" />
        </mxCell>
        <mxCell id="d1d7cLSGbMRrJKeK6gm--2" value="Login" style="ellipse;whiteSpace=wrap;html=1;" vertex="1" parent="d1d7cLSGbMRrJKeK6gm--1">
          <mxGeometry x="185" y="130" width="140" height="60" as="geometry" />
        </mxCell>
        <mxCell id="d1d7cLSGbMRrJKeK6gm--3" style="edgeStyle=orthogonalEdgeStyle;rounded=0;orthogonalLoop=1;jettySize=auto;html=1;exitX=0.5;exitY=1;exitDx=0;exitDy=0;" edge="1" parent="d1d7cLSGbMRrJKeK6gm--1" source="d1d7cLSGbMRrJKeK6gm--2" target="d1d7cLSGbMRrJKeK6gm--2">
          <mxGeometry relative="1" as="geometry" />
        </mxCell>
        <mxCell id="d1d7cLSGbMRrJKeK6gm--5" value="Validate" style="ellipse;whiteSpace=wrap;html=1;" vertex="1" parent="d1d7cLSGbMRrJKeK6gm--1">
          <mxGeometry x="380" y="60" width="140" height="60" as="geometry" />
        </mxCell>
        <mxCell id="d1d7cLSGbMRrJKeK6gm--6" value="LogIn Successfully" style="ellipse;whiteSpace=wrap;html=1;" vertex="1" parent="d1d7cLSGbMRrJKeK6gm--1">
          <mxGeometry x="80" y="380" width="140" height="60" as="geometry" />
        </mxCell>
        <mxCell id="d1d7cLSGbMRrJKeK6gm--7" value="DashBoard" style="ellipse;whiteSpace=wrap;html=1;" vertex="1" parent="d1d7cLSGbMRrJKeK6gm--1">
          <mxGeometry x="185" y="240" width="140" height="60" as="geometry" />
        </mxCell>
        <mxCell id="d1d7cLSGbMRrJKeK6gm--19" value="Error" style="ellipse;whiteSpace=wrap;html=1;" vertex="1" parent="d1d7cLSGbMRrJKeK6gm--1">
          <mxGeometry x="310" y="380" width="140" height="60" as="geometry" />
        </mxCell>
        <mxCell id="d1d7cLSGbMRrJKeK6gm--21" value="" style="endArrow=none;html=1;rounded=0;" edge="1" parent="d1d7cLSGbMRrJKeK6gm--1">
          <mxGeometry width="50" height="50" relative="1" as="geometry">
            <mxPoint x="150" y="340" as="sourcePoint" />
            <mxPoint x="370" y="340" as="targetPoint" />
          </mxGeometry>
        </mxCell>
        <mxCell id="d1d7cLSGbMRrJKeK6gm--20" value="" style="endArrow=classic;html=1;rounded=0;" edge="1" parent="d1d7cLSGbMRrJKeK6gm--1">
          <mxGeometry width="50" height="50" relative="1" as="geometry">
            <mxPoint x="255" y="340" as="sourcePoint" />
            <mxPoint x="255" y="300" as="targetPoint" />
          </mxGeometry>
        </mxCell>
        <mxCell id="d1d7cLSGbMRrJKeK6gm--23" value="" style="endArrow=none;html=1;rounded=0;exitX=0.429;exitY=0;exitDx=0;exitDy=0;exitPerimeter=0;" edge="1" parent="d1d7cLSGbMRrJKeK6gm--1" source="d1d7cLSGbMRrJKeK6gm--19">
          <mxGeometry width="50" height="50" relative="1" as="geometry">
            <mxPoint x="320" y="330" as="sourcePoint" />
            <mxPoint x="370" y="340" as="targetPoint" />
          </mxGeometry>
        </mxCell>
        <mxCell id="d1d7cLSGbMRrJKeK6gm--25" value="Yes" style="text;html=1;align=center;verticalAlign=middle;whiteSpace=wrap;rounded=0;" vertex="1" parent="d1d7cLSGbMRrJKeK6gm--1">
          <mxGeometry x="160" y="310" width="60" height="30" as="geometry" />
        </mxCell>
        <mxCell id="d1d7cLSGbMRrJKeK6gm--26" value="No" style="text;html=1;align=center;verticalAlign=middle;whiteSpace=wrap;rounded=0;" vertex="1" parent="d1d7cLSGbMRrJKeK6gm--1">
          <mxGeometry x="290" y="310" width="60" height="30" as="geometry" />
        </mxCell>
        <mxCell id="d1d7cLSGbMRrJKeK6gm--32" value="&amp;lt;&amp;lt;include&amp;gt;&amp;gt;" style="endArrow=open;endSize=12;dashed=1;html=1;rounded=0;exitX=1.001;exitY=0.532;exitDx=0;exitDy=0;exitPerimeter=0;entryX=-0.001;entryY=0.473;entryDx=0;entryDy=0;entryPerimeter=0;" edge="1" parent="d1d7cLSGbMRrJKeK6gm--1" source="d1d7cLSGbMRrJKeK6gm--2" target="d1d7cLSGbMRrJKeK6gm--5">
          <mxGeometry width="160" relative="1" as="geometry">
            <mxPoint x="360" y="100" as="sourcePoint" />
            <mxPoint x="520" y="100" as="targetPoint" />
          </mxGeometry>
        </mxCell>
        <mxCell id="d1d7cLSGbMRrJKeK6gm--33" value="&amp;lt;&amp;lt;include&amp;gt;&amp;gt;" style="endArrow=open;endSize=12;dashed=1;html=1;rounded=0;exitX=1;exitY=0.5;exitDx=0;exitDy=0;entryX=0;entryY=0.5;entryDx=0;entryDy=0;" edge="1" parent="d1d7cLSGbMRrJKeK6gm--1" source="d1d7cLSGbMRrJKeK6gm--38" target="d1d7cLSGbMRrJKeK6gm--5">
          <mxGeometry width="160" relative="1" as="geometry">
            <mxPoint x="335" y="102" as="sourcePoint" />
            <mxPoint x="390" y="138" as="targetPoint" />
          </mxGeometry>
        </mxCell>
        <mxCell id="d1d7cLSGbMRrJKeK6gm--38" value="Registration" style="ellipse;whiteSpace=wrap;html=1;" vertex="1" parent="d1d7cLSGbMRrJKeK6gm--1">
          <mxGeometry x="185" y="30" width="140" height="60" as="geometry" />
        </mxCell>
        <mxCell id="d1d7cLSGbMRrJKeK6gm--39" value="" style="endArrow=none;html=1;rounded=0;entryX=0;entryY=0.5;entryDx=0;entryDy=0;" edge="1" parent="d1d7cLSGbMRrJKeK6gm--1" target="d1d7cLSGbMRrJKeK6gm--38">
          <mxGeometry width="50" height="50" relative="1" as="geometry">
            <mxPoint x="-70" y="260" as="sourcePoint" />
            <mxPoint x="195" y="60" as="targetPoint" />
          </mxGeometry>
        </mxCell>
        <mxCell id="d1d7cLSGbMRrJKeK6gm--10" value="Customer" style="shape=umlActor;verticalLabelPosition=bottom;verticalAlign=top;html=1;outlineConnect=0;" vertex="1" parent="1">
          <mxGeometry x="70" y="210" width="30" height="60" as="geometry" />
        </mxCell>
        <mxCell id="d1d7cLSGbMRrJKeK6gm--11" value="" style="endArrow=none;html=1;rounded=0;entryX=0;entryY=0.5;entryDx=0;entryDy=0;" edge="1" parent="1" target="d1d7cLSGbMRrJKeK6gm--2">
          <mxGeometry width="50" height="50" relative="1" as="geometry">
            <mxPoint x="100" y="230" as="sourcePoint" />
            <mxPoint x="150" y="180" as="targetPoint" />
          </mxGeometry>
        </mxCell>
        <mxCell id="d1d7cLSGbMRrJKeK6gm--12" value="" style="endArrow=none;html=1;rounded=0;entryX=0;entryY=0.5;entryDx=0;entryDy=0;" edge="1" parent="1" target="d1d7cLSGbMRrJKeK6gm--7">
          <mxGeometry width="50" height="50" relative="1" as="geometry">
            <mxPoint x="100" y="230" as="sourcePoint" />
            <mxPoint x="365" y="120" as="targetPoint" />
          </mxGeometry>
        </mxCell>
        <mxCell id="d1d7cLSGbMRrJKeK6gm--24" value="" style="endArrow=none;html=1;rounded=0;exitX=0.5;exitY=0;exitDx=0;exitDy=0;" edge="1" parent="1" source="d1d7cLSGbMRrJKeK6gm--6">
          <mxGeometry width="50" height="50" relative="1" as="geometry">
            <mxPoint x="320" y="360" as="sourcePoint" />
            <mxPoint x="320" y="350" as="targetPoint" />
            <Array as="points">
              <mxPoint x="320" y="310" />
            </Array>
          </mxGeometry>
        </mxCell>
      </root>
    </mxGraphModel>
  </diagram>
</mxfile>
